<svg xmlns="http://www.w3.org/2000/svg" xmlns:xlink="http://www.w3.org/1999/xlink" viewBox="0 0 168.873 190.355"><defs><clipPath id="a" transform="translate(4.922 4.96)"><path d="M73.411,120.372a37,37,0,1,0-37-37A37,37,0,0,0,73.411,120.372Zm13.524-46.41a3.05,3.05,0,0,1,6.1,0V98.049a3.05,3.05,0,1,1-6.1,0ZM71.218,66.676a3.05,3.05,0,1,1,6.1,0V97.892a3.05,3.05,0,0,1-6.1,0ZM55.351,79.466a3.052,3.052,0,0,1,6.1,0V97.819a3.05,3.05,0,1,1-6.1,0V79.466ZM101.065,116.3a42.955,42.955,0,1,1,5.38-5.4l19.167,19.15a3.878,3.878,0,1,1-5.484,5.483Zm51.22,14V50.129a3.332,3.332,0,0,0-1.667-2.887L81.178,7.152a3.34,3.34,0,0,0-3.333,0L8.411,47.239a3.334,3.334,0,0,0-1.666,2.887v80.18a3.332,3.332,0,0,0,1.666,2.886l69.434,40.09a3.34,3.34,0,0,0,3.333,0l69.44-40.09A3.329,3.329,0,0,0,152.285,130.306Zm6.667,0a10,10,0,0,1-5,8.66l-69.441,40.09a10.006,10.006,0,0,1-10,0L5.078,138.966a10,10,0,0,1-5-8.66V50.129a10,10,0,0,1,5-8.66L74.511,1.379a10,10,0,0,1,10,0l69.434,40.09a10,10,0,0,1,5,8.66v80.177Z" style="fill:none"/></clipPath></defs><title>矢量智能对象</title><g style="clip-path:url(#a)"><rect width="168.873" height="190.355" style="fill: #d9e5ff"/></g></svg>